<svg width="34" height="34" viewBox="0 0 34 34" fill="none" xmlns="http://www.w3.org/2000/svg">
<rect width="34" height="34" fill="white"/>
<path d="M31.0001 16.0183C27.0669 19.853 10.1135 19.3241 6.8584 16.0183L16.7592 27.2579V32.6794H21.2349V27.2579C25.8914 22.145 28.5588 18.6629 31.0001 16.0183Z" fill="#E8DCF0"/>
<path d="M28.7077 16.2067L23.0376 22.686M27.8431 13.4298C30.7922 15.137 28.7941 17.0884 24.3168 18.1639M7.49902 19.6447L14.416 27.5786V31.1488" stroke="#9E66BF" stroke-width="1.25" stroke-linecap="round" stroke-linejoin="round"/>
<path d="M4.55735 16.2067L6.14251 18.0352M5.46437 13.4298C0.988675 15.81 7.36316 18.9835 16.5858 18.9835C18.8258 18.9835 20.4909 18.8945 22.2822 18.5868" stroke="#C3A1D7" stroke-width="1.25" stroke-linecap="round" stroke-linejoin="round"/>
<path d="M21.6039 24.2726L18.7557 27.5784V32.9999H15.0938" stroke="#C3A1D7" stroke-width="1.25" stroke-linecap="round" stroke-linejoin="round"/>
<path d="M11.1609 10.6164C11.4086 10.376 11.4146 9.98031 11.1742 9.73262C10.9338 9.48492 10.5381 9.479 10.2904 9.71941L11.1609 10.6164ZM8.83643 12.0015L8.40114 11.553C8.27986 11.6707 8.21143 11.8325 8.21143 12.0015C8.21143 12.1705 8.27986 12.3323 8.40114 12.45L8.83643 12.0015ZM10.2904 14.2836C10.5381 14.524 10.9338 14.5181 11.1742 14.2704C11.4146 14.0227 11.4086 13.627 11.1609 13.3866L10.2904 14.2836ZM10.2904 9.71941L8.40114 11.553L9.27171 12.45L11.1609 10.6164L10.2904 9.71941ZM8.40114 12.45L10.2904 14.2836L11.1609 13.3866L9.27171 11.553L8.40114 12.45Z" fill="#C3A1D7"/>
<path d="M15.0134 10.6164C14.7657 10.376 14.7598 9.98031 15.0002 9.73262C15.2406 9.48492 15.6362 9.479 15.8839 9.71941L15.0134 10.6164ZM17.3379 12.0015L17.7732 11.553C17.8945 11.6707 17.9629 11.8325 17.9629 12.0015C17.9629 12.1705 17.8945 12.3323 17.7732 12.45L17.3379 12.0015ZM15.8839 14.2836C15.6362 14.524 15.2406 14.5181 15.0002 14.2704C14.7598 14.0227 14.7657 13.627 15.0134 13.3866L15.8839 14.2836ZM15.8839 9.71941L17.7732 11.553L16.9026 12.45L15.0134 10.6164L15.8839 9.71941ZM17.7732 12.45L15.8839 14.2836L15.0134 13.3866L16.9026 11.553L17.7732 12.45Z" fill="#C3A1D7"/>
<path d="M13.5594 9.25119L12.6147 14.752" stroke="#9E66BF" stroke-width="1.25" stroke-linecap="round"/>
<path d="M21.0794 6.491C21.3271 6.2506 21.333 5.85491 21.0926 5.60722C20.8522 5.35952 20.4565 5.35361 20.2088 5.59401L21.0794 6.491ZM18.7549 7.87611L18.3196 7.42761C18.1983 7.54531 18.1299 7.70711 18.1299 7.87611C18.1299 8.04511 18.1983 8.2069 18.3196 8.3246L18.7549 7.87611ZM20.2088 10.1582C20.4565 10.3986 20.8522 10.3927 21.0926 10.145C21.333 9.8973 21.3271 9.50162 21.0794 9.26121L20.2088 10.1582ZM20.2088 5.59401L18.3196 7.42761L19.1902 8.3246L21.0794 6.491L20.2088 5.59401ZM18.3196 8.3246L20.2088 10.1582L21.0794 9.26121L19.1902 7.42761L18.3196 8.3246Z" fill="#C3A1D7"/>
<path d="M24.9318 6.491C24.6841 6.2506 24.6782 5.85491 24.9186 5.60722C25.159 5.35952 25.5547 5.35361 25.8024 5.59401L24.9318 6.491ZM27.2563 7.87611L27.6916 7.42761C27.8129 7.54531 27.8813 7.70711 27.8813 7.87611C27.8813 8.04511 27.8129 8.2069 27.6916 8.3246L27.2563 7.87611ZM25.8024 10.1582C25.5547 10.3986 25.159 10.3927 24.9186 10.145C24.6782 9.8973 24.6841 9.50162 24.9318 9.26121L25.8024 10.1582ZM25.8024 5.59401L27.6916 7.42761L26.8211 8.3246L24.9318 6.491L25.8024 5.59401ZM27.6916 8.3246L25.8024 10.1582L24.9318 9.26121L26.8211 7.42761L27.6916 8.3246Z" fill="#C3A1D7"/>
<path d="M23.4783 5.12579L22.5337 10.6266" stroke="#9E66BF" stroke-width="1.25" stroke-linecap="round"/>
<path d="M9.74396 2.36534C9.99166 2.12494 9.99757 1.72925 9.75716 1.48155C9.51676 1.23386 9.12108 1.22794 8.87338 1.46835L9.74396 2.36534ZM7.41943 3.75045L6.98414 3.30195C6.86287 3.41965 6.79443 3.58145 6.79443 3.75045C6.79443 3.91944 6.86287 4.08124 6.98414 4.19894L7.41943 3.75045ZM8.87338 6.03254C9.12108 6.27295 9.51676 6.26703 9.75716 6.01934C9.99757 5.77164 9.99166 5.37595 9.74396 5.13555L8.87338 6.03254ZM8.87338 1.46835L6.98414 3.30195L7.85472 4.19894L9.74396 2.36534L8.87338 1.46835ZM6.98414 4.19894L8.87338 6.03254L9.74396 5.13555L7.85472 3.30195L6.98414 4.19894Z" fill="#C3A1D7"/>
<path d="M13.5964 2.36534C13.3487 2.12494 13.3428 1.72925 13.5832 1.48155C13.8236 1.23386 14.2193 1.22794 14.467 1.46835L13.5964 2.36534ZM15.9209 3.75045L16.3562 3.30195C16.4775 3.41965 16.5459 3.58145 16.5459 3.75045C16.5459 3.91944 16.4775 4.08124 16.3562 4.19894L15.9209 3.75045ZM14.467 6.03254C14.2193 6.27295 13.8236 6.26703 13.5832 6.01934C13.3428 5.77164 13.3487 5.37595 13.5964 5.13555L14.467 6.03254ZM14.467 1.46835L16.3562 3.30195L15.4856 4.19894L13.5964 2.36534L14.467 1.46835ZM16.3562 4.19894L14.467 6.03254L13.5964 5.13555L15.4856 3.30195L16.3562 4.19894Z" fill="#C3A1D7"/>
<path d="M12.1424 1L11.1978 6.50081" stroke="#9E66BF" stroke-width="1.25" stroke-linecap="round"/>
</svg>
